<?xml version="1.0" encoding="UTF-8" standalone="no"?>
<!DOCTYPE svg PUBLIC "-//W3C//DTD SVG 1.1//EN" "http://www.w3.org/Graphics/SVG/1.1/DTD/svg11.dtd">
<svg width="100%" height="100%" viewBox="0 0 1400 1400" version="1.1" xmlns="http://www.w3.org/2000/svg" xmlns:xlink="http://www.w3.org/1999/xlink" xml:space="preserve" xmlns:serif="http://www.serif.com/" style="fill-rule:evenodd;clip-rule:evenodd;stroke-linejoin:round;stroke-miterlimit:2;">
    <g id="path1" transform="matrix(8.00716,0,0,11.0209,-116.373,-580.504)">
        <path d="M79.779,126.528C80.146,124.199 78.09,121.378 73.245,115.622C88.043,114.844 104.539,103.435 104.539,103.435C104.684,103.333 104.796,103.207 104.874,103.067C106.21,102.068 107.944,100.588 110.372,98.583C115.646,94.226 120.658,87.121 122.691,83.653C126.387,77.346 126.387,77.346 129.622,80.581C132.267,83.226 133.825,88.737 134.303,95.292C133.943,95.326 133.606,95.514 133.41,95.826C133.41,95.826 114.712,125.654 79.779,126.53C79.783,126.529 79.783,126.529 79.779,126.528ZM79.779,126.53C79.221,126.544 78.658,126.551 78.092,126.55C78,126.55 79.701,126.514 79.779,126.528L79.779,126.53ZM72.559,113.474C70.544,106.862 70.131,86.049 72.147,83.342C73.693,81.266 75.581,79.568 76.343,79.568C77.105,79.568 80.416,83.168 83.7,87.568C86.985,91.968 90.387,95.456 93.858,98.549C96.741,101.119 98.359,102.948 99.649,103.903C94.092,107.225 82.795,113.16 72.559,113.474ZM134.446,98.366C131.876,106.477 130.824,115.315 133.149,119.898C127.942,124.565 108.905,141.041 91.738,143.394C91.663,143.404 82.463,142.978 82.394,143C75.58,136.96 81.179,132.438 80.461,128.124C112.476,127.763 130.043,104.528 134.446,98.366ZM127.882,126.603C128.598,125.638 133.701,121.87 133.701,121.87C136.497,121.399 137.308,134.459 131.657,137.196C130.955,137.536 125.491,139.747 120.26,144.465C117.205,147.219 114.612,156.48 103.966,156.487C97.229,156.491 94.118,151.864 92.311,150.268C91.848,149.859 82.394,144.69 82.394,144.69C82.394,144.69 91.951,145.393 91.714,145.182C106.39,142.566 120.211,132.996 127.882,126.603ZM84.55,80.594C84.105,81.059 83.224,81.174 82.584,80.851C81.944,80.528 81.785,79.888 82.23,79.423C82.23,79.423 85.309,76.2 90.004,73.623C93.245,71.845 97.244,70.392 101.521,70.392C104.547,70.392 107.511,71.186 110.198,72.356C116.782,75.223 121.679,80.34 121.679,80.34C122.123,80.805 121.964,81.445 121.324,81.768C120.683,82.091 119.802,81.976 119.358,81.51C119.358,81.51 114.837,76.77 108.745,74.117C106.504,73.141 104.046,72.445 101.521,72.445C97.866,72.445 94.477,73.741 91.707,75.261C87.387,77.632 84.55,80.594 84.55,80.594ZM88.296,86.567C87.859,87.047 86.967,87.179 86.306,86.861C85.645,86.543 85.464,85.895 85.902,85.414C85.902,85.414 88.388,82.684 92.179,80.501C94.829,78.975 98.106,77.737 101.604,77.737C104.088,77.737 106.523,78.415 108.729,79.423C114.044,81.852 118,86.184 118,86.184C118.437,86.665 118.255,87.313 117.594,87.631C116.933,87.948 116.041,87.816 115.604,87.336C115.604,87.336 112.025,83.394 107.199,81.19C105.462,80.396 103.561,79.824 101.604,79.824C98.755,79.824 96.122,80.893 93.964,82.136C90.543,84.106 88.296,86.567 88.296,86.567ZM93.293,91.512C92.859,92.072 91.88,92.27 91.11,91.955C90.339,91.639 90.066,90.928 90.501,90.368C90.501,90.368 92.222,88.149 94.848,86.373C96.772,85.071 99.175,84.043 101.716,84.043C103.545,84.043 105.35,84.613 106.974,85.484C110.655,87.459 113.4,90.981 113.4,90.981C113.835,91.541 113.561,92.252 112.79,92.567C112.02,92.882 111.041,92.684 110.607,92.124C110.607,92.124 108.253,89.066 105.069,87.357C104.024,86.796 102.893,86.372 101.716,86.372C99.96,86.372 98.362,87.178 97.032,88.078C94.775,89.604 93.293,91.512 93.293,91.512Z"/>
    </g>
</svg>
